Coordinates
version=1
nRows=20
nColumns=32
inDegrees=yes

Units are S.I. units (second, meters, Newtons, ...)
If the header above contains a line with 'inDegrees', this indicates whether rotational values are in degrees (yes) or radians (no).

endheader
time	pelvis_tilt	pelvis_list	pelvis_rotation	pelvis_tx	pelvis_ty	pelvis_tz	hip_flexion_r	hip_adduction_r	hip_rotation_r	knee_angle_r	ankle_angle_r	subtalar_angle_r	mtp_angle_r	hip_flexion_l	hip_adduction_l	hip_rotation_l	knee_angle_l	ankle_angle_l	subtalar_angle_l	mtp_angle_l	lumbar_extension	lumbar_bending	lumbar_rotation	arm_flex_r	arm_add_r	arm_rot_r	elbow_flex_r	arm_flex_l	arm_add_l	arm_rot_l	elbow_flex_l
      3.50000000	     -9.47789502	     -6.03136223	     14.00444094	     -0.04866670	      0.87456204	      0.22884684	     36.80282978	     -4.50784763	    -24.37976935	    -13.60003543	     -6.24184284	     -3.14179288	      0.00000000	      6.98727440	     -4.59000258	      5.93726354	    -20.62145203	      8.92940883	    -25.69113219	      0.00000000	     -0.19771547	     -0.23346988	     -8.50859097	      0.00000000	      0.00000000	      0.00000000	      0.00000000	      0.00000000	      0.00000000	      0.00000000	      0.00000000
      3.51000000	     -8.68128288	     -5.80506984	     13.36354098	     -0.03499512	      0.87282534	      0.22922657	     35.25412438	     -3.65499892	    -23.78296774	    -11.89599588	     -6.18374464	     -2.86258503	      0.00000000	      4.93754641	     -4.95315764	      4.11484876	    -20.39010392	      9.26434266	    -25.14286554	      0.00000000	     -0.60359233	      0.30577380	     -7.43286409	      0.00000000	      0.00000000	      0.00000000	      0.00000000	      0.00000000	      0.00000000	      0.00000000	      0.00000000
      3.52000000	     -8.86738432	     -5.31908185	     13.57531705	     -0.02322190	      0.86963144	      0.22762393	     34.90791284	     -4.15592333	    -24.07151790	    -11.23793242	     -6.24910347	     -2.86827994	      0.00000000	      4.41105454	     -4.46234360	      3.93912050	    -20.81242571	      9.33369207	    -25.12733377	      0.00000000	     -0.14654680	      0.43443379	     -7.37688953	      0.00000000	      0.00000000	      0.00000000	      0.00000000	      0.00000000	      0.00000000	      0.00000000	      0.00000000
      3.53000000	     -8.95091522	     -4.82747568	     13.46391517	     -0.01053885	      0.86613444	      0.22728696	     34.69767483	     -4.55480584	    -25.28519966	    -11.56613370	     -6.70854595	     -2.80922570	      0.00000000	      3.69359667	     -4.09457730	      3.48617528	    -21.30568242	      9.49590576	    -25.12077247	      0.00000000	      0.39929884	      0.35252986	     -7.15561667	      0.00000000	      0.00000000	      0.00000000	      0.00000000	      0.00000000	      0.00000000	      0.00000000	      0.00000000
      3.54000000	     -9.03111129	     -3.84346576	     13.17823981	      0.00125478	      0.86279721	      0.22566236	     34.60386366	     -5.41198001	    -25.12058255	    -12.57345879	     -9.01990919	     -2.63011264	      0.00000000	      2.87184689	     -2.93341760	      3.41340640	    -21.79004125	      9.84394614	    -25.12850159	      0.00000000	      0.62387509	      0.12018622	     -6.59208417	      0.00000000	      0.00000000	      0.00000000	      0.00000000	      0.00000000	      0.00000000	      0.00000000	      0.00000000
      3.55000000	     -9.26786114	     -3.95834384	     12.73693861	      0.01426270	      0.85966430	      0.22485541	     34.88762231	     -5.31471205	    -26.19214436	    -13.64072244	    -13.33242196	     -4.12226294	      0.00000000	      2.42239789	     -2.96727802	      3.39975339	    -22.38135328	      9.89866961	    -25.50602468	      0.00000000	      1.46319027	      0.97338879	     -5.74763617	      0.00000000	      0.00000000	      0.00000000	      0.00000000	      0.00000000	      0.00000000	      0.00000000	      0.00000000
      3.56000000	     -9.17465620	     -4.39426695	     12.24916816	      0.02494702	      0.85837709	      0.22395455	     35.58678540	     -4.77895432	    -25.23749961	    -15.65313583	    -13.19658281	     -4.31037966	      0.00000000	      1.96043424	     -3.27506605	      3.71416908	    -23.06906113	      9.78438443	    -25.50501690	      0.00000000	      1.57764952	      2.53587389	     -5.88985801	      0.00000000	      0.00000000	      0.00000000	      0.00000000	      0.00000000	      0.00000000	      0.00000000	      0.00000000
      3.57000000	    -11.54094369	     -5.13392737	      8.65876871	      0.03627789	      0.85329483	      0.22889483	     40.26424428	     -2.58687680	    -19.73669728	    -20.02899078	     -9.20399186	     -5.62077688	      0.00000000	      4.00183726	     -4.08828866	     -0.39284988	    -24.40996619	      9.36062873	    -26.07231853	      0.00000000	      4.60046706	      3.87288272	     -2.42904487	      0.00000000	      0.00000000	      0.00000000	      0.00000000	      0.00000000	      0.00000000	      0.00000000	      0.00000000
      3.58000000	    -11.97195090	     -4.81441671	      6.93084308	      0.04718178	      0.85158905	      0.22907583	     42.66323018	     -2.45857508	    -17.00850634	    -25.03107456	     -7.86888890	     -6.38990711	      0.00000000	      3.75152258	     -3.40427429	     -0.57243310	    -25.18173517	      8.68583019	    -26.10546521	      0.00000000	      5.06956953	      4.52569526	     -1.01027074	      0.00000000	      0.00000000	      0.00000000	      0.00000000	      0.00000000	      0.00000000	      0.00000000	      0.00000000
      3.59000000	    -11.89587865	     -5.83176137	      5.51951996	      0.05962634	      0.85098977	      0.23009550	     43.12217265	     -0.68255073	    -15.54909909	    -26.91799456	     -7.21843197	     -6.72617671	      0.00000000	      3.34314470	     -4.55152414	     -1.35802589	    -26.40828607	      8.10857847	    -26.46968463	      0.00000000	      5.20406202	      6.72083807	     -0.34407577	      0.00000000	      0.00000000	      0.00000000	      0.00000000	      0.00000000	      0.00000000	      0.00000000	      0.00000000
      3.60000000	    -10.33139907	     -5.97504642	      3.21161276	      0.07450475	      0.85196424	      0.23207353	     41.54988857	      0.79295420	    -14.46577943	    -28.44776248	     -5.79317681	     -7.53273790	      0.00000000	      0.15275700	     -4.74926243	     -3.11885470	    -26.10374110	      6.60352680	    -26.87908550	      0.00000000	      3.49851024	      8.10738248	      1.73565454	      0.00000000	      0.00000000	      0.00000000	      0.00000000	      0.00000000	      0.00000000	      0.00000000	      0.00000000
      3.61000000	    -10.29141038	     -5.88300253	      2.53996923	      0.08720947	      0.85061114	      0.23250709	     41.31721136	      0.98326455	    -14.15532944	    -29.44579897	     -5.76866396	     -7.63257641	      0.00000000	     -0.36911473	     -4.46454486	     -2.79999034	    -26.99861418	      6.48037083	    -26.89190935	      0.00000000	      3.58579279	      8.84445240	      1.53093653	      0.00000000	      0.00000000	      0.00000000	      0.00000000	      0.00000000	      0.00000000	      0.00000000	      0.00000000
      3.62000000	     -8.35405175	     -5.31119096	      0.68463832	      0.09949929	      0.85172070	      0.23583722	     39.28948360	      1.79538726	    -12.68618469	    -30.94226928	     -3.29959530	     -7.76704955	      0.00000000	     -3.33333707	     -3.89690801	     -4.68481394	    -27.30003789	      3.99760163	    -28.19776180	      0.00000000	      0.80055416	      8.88842561	      2.76398696	      0.00000000	      0.00000000	      0.00000000	      0.00000000	      0.00000000	      0.00000000	      0.00000000	      0.00000000
      3.63000000	     -8.40571404	     -5.04590668	      0.08833465	      0.11041621	      0.85122412	      0.23645752	     38.99947759	      1.81602086	    -12.85500017	    -31.82721310	     -2.67567332	     -7.89938829	      0.00000000	     -3.14825729	     -3.47732123	     -4.70142936	    -28.93036686	      3.61326652	    -28.25601073	      0.00000000	      0.67489339	      9.13084939	      3.05985523	      0.00000000	      0.00000000	      0.00000000	      0.00000000	      0.00000000	      0.00000000	      0.00000000	      0.00000000
      3.64000000	     -9.24674135	     -5.33848744	     -0.82098558	      0.12093077	      0.85055679	      0.23786247	     39.43997309	      2.36611423	    -13.20475020	    -32.35090910	     -1.05444617	     -7.13218374	      0.00000000	     -1.88676333	     -3.74966242	     -5.04664263	    -30.96875890	      1.89411758	    -28.32773371	      0.00000000	      1.34843903	     10.09759789	      3.62117148	      0.00000000	      0.00000000	      0.00000000	      0.00000000	      0.00000000	      0.00000000	      0.00000000	      0.00000000
      3.65000000	     -9.99996987	     -5.70082889	     -1.61323020	      0.13081873	      0.85076955	      0.23852070	     39.63094830	      3.30076409	    -12.36916506	    -32.41862945	     -0.22641554	     -6.78669589	      0.00000000	     -0.40452071	     -4.08074535	     -5.23751460	    -33.38644185	      0.49908714	    -28.79221340	      0.00000000	      1.81554640	     11.25298245	      3.77922221	      0.00000000	      0.00000000	      0.00000000	      0.00000000	      0.00000000	      0.00000000	      0.00000000	      0.00000000
      3.66000000	    -10.26401619	     -6.07494632	     -2.27906422	      0.14112510	      0.85127936	      0.23961497	     39.47742282	      4.06095542	    -11.88106669	    -32.91307448	      0.38719682	     -6.64188124	      0.00000000	      0.66244270	     -4.54999922	     -5.55060809	    -35.95983636	     -0.99326913	    -28.94952875	      0.00000000	      1.94395392	     12.20255454	      3.87261538	      0.00000000	      0.00000000	      0.00000000	      0.00000000	      0.00000000	      0.00000000	      0.00000000	      0.00000000
      3.67000000	    -10.46237432	     -6.91986280	     -2.56802969	      0.15257828	      0.85244293	      0.24035212	     38.76913424	      5.15783066	    -11.58901628	    -32.74350022	      0.99622254	     -6.73322374	      0.00000000	      1.70564930	     -5.60063440	     -5.61036579	    -38.51107108	     -2.37869482	    -29.14901889	      0.00000000	      2.06093405	     13.64738641	      4.00496784	      0.00000000	      0.00000000	      0.00000000	      0.00000000	      0.00000000	      0.00000000	      0.00000000	      0.00000000
      3.68000000	    -10.45801423	     -7.76134008	     -2.64131030	      0.16372412	      0.85394368	      0.24094764	     37.71382890	      6.18576081	    -11.34461065	    -32.32290958	      1.64467817	     -6.95694485	      0.00000000	      2.75449871	     -6.68199409	     -5.42976504	    -41.15931169	     -4.02516691	    -29.31938885	      0.00000000	      1.99740939	     14.99335983	      3.69955700	      0.00000000	      0.00000000	      0.00000000	      0.00000000	      0.00000000	      0.00000000	      0.00000000	      0.00000000
      3.69000000	    -10.42112630	     -8.19530282	     -2.64621096	      0.17454377	      0.85487776	      0.24187562	     36.85592695	      6.75060885	    -11.30661253	    -32.23332843	      2.23479894	     -7.50798754	      0.00000000	      3.97447460	     -7.35524235	     -5.21669309	    -43.99258246	     -5.46692852	    -29.45635867	      0.00000000	      1.87233570	     15.75527470	      3.63153681	      0.00000000	      0.00000000	      0.00000000	      0.00000000	      0.00000000	      0.00000000	      0.00000000	      0.00000000
